<svg version="1.1" id="Logo" xmlns="http://www.w3.org/2000/svg" x="0" y="0" viewBox="0 0 137 28" xml:space="preserve"><style>.st0{enable-background:new}.st1{fill:#fefefe}.st2{fill:#65e496}</style><g class="st0"><path class="st1" d="M46.99 23V3.09h6.97c2.42 0 4.25.46 5.5 1.39 1.25.92 1.87 2.28 1.87 4.07 0 .98-.25 1.83-.75 2.58-.5.74-1.2 1.29-2.09 1.63 1.02.25 1.83.77 2.41 1.54s.88 1.72.88 2.84c0 1.91-.61 3.36-1.83 4.35-1.22.98-2.96 1.49-5.22 1.5h-7.74zm4.1-11.57h3.04c2.07-.04 3.1-.86 3.1-2.47 0-.9-.26-1.55-.79-1.95-.52-.4-1.35-.59-2.48-.59h-2.87v5.01zm0 2.9v5.37h3.51c.97 0 1.72-.23 2.26-.69.54-.46.81-1.1.81-1.91 0-1.82-.94-2.75-2.83-2.78h-3.75zM79.93 3.09V16.2c0 2.18-.68 3.9-2.04 5.17-1.36 1.27-3.22 1.9-5.58 1.9-2.32 0-4.17-.62-5.54-1.85s-2.06-2.92-2.09-5.07V3.09h4.1v13.14c0 1.3.31 2.25.94 2.85.62.6 1.49.9 2.59.9 2.31 0 3.48-1.21 3.51-3.64V3.09h4.11zM89.52 15.02l-2.13 2.3V23h-4.1V3.09h4.1v9.02l1.8-2.47 5.07-6.55h5.04l-7.07 8.85L99.52 23h-4.88l-5.12-7.98z"/></g><g class="st0"><path class="st2" d="M113.04 14.37h-7.88v5.33h9.24V23h-13.34V3.09h13.32v3.32h-9.21v4.74h7.88v3.22zM128.79 14.37h-7.88v5.33h9.24V23h-13.34V3.09h13.32v3.32h-9.21v4.74h7.88v3.22z"/></g><g id="logo_icon" fill-rule="evenodd" clip-rule="evenodd"><path id="Rectangle_10_copy_3" d="M28 28L0 0h28v28z" fill="#65e496"/><path d="M28 0L0 28V0h28z" fill="#44444f"/></g></svg>