<?xml version="1.0" encoding="utf-8"?>
<!-- Generator: Adobe Illustrator 24.1.0, SVG Export Plug-In . SVG Version: 6.00 Build 0)  -->
<svg version="1.1" id="Logo" xmlns="http://www.w3.org/2000/svg" xmlns:xlink="http://www.w3.org/1999/xlink" x="0px" y="0px"
	 viewBox="0 0 137 28" style="enable-background:new 0 0 137 28;" xml:space="preserve">
<style type="text/css">
	.st0{enable-background:new    ;}
	.st1{fill:#FEFEFE;}
	.st2{fill:#65E496;}
	.st3{fill-rule:evenodd;clip-rule:evenodd;fill:#65E496;}
	.st4{fill-rule:evenodd;clip-rule:evenodd;fill:#44444F;}
</style>
<g class="st0">
	<path class="st1" d="M46.99,23V3.09h6.97c2.42,0,4.25,0.46,5.5,1.39c1.25,0.92,1.87,2.28,1.87,4.07c0,0.98-0.25,1.83-0.75,2.58
		c-0.5,0.74-1.2,1.29-2.09,1.63c1.02,0.25,1.83,0.77,2.41,1.54s0.88,1.72,0.88,2.84c0,1.91-0.61,3.36-1.83,4.35
		c-1.22,0.98-2.96,1.49-5.22,1.5H46.99z M51.09,11.43h3.04c2.07-0.04,3.1-0.86,3.1-2.47c0-0.9-0.26-1.55-0.79-1.95
		c-0.52-0.4-1.35-0.59-2.48-0.59h-2.87V11.43z M51.09,14.33v5.37h3.51c0.97,0,1.72-0.23,2.26-0.69c0.54-0.46,0.81-1.1,0.81-1.91
		c0-1.82-0.94-2.75-2.83-2.78H51.09z"/>
	<path class="st1" d="M79.93,3.09v13.11c0,2.18-0.68,3.9-2.04,5.17c-1.36,1.27-3.22,1.9-5.58,1.9c-2.32,0-4.17-0.62-5.54-1.85
		s-2.06-2.92-2.09-5.07V3.09h4.1v13.14c0,1.3,0.31,2.25,0.94,2.85c0.62,0.6,1.49,0.9,2.59,0.9c2.31,0,3.48-1.21,3.51-3.64V3.09
		H79.93z"/>
	<path class="st1" d="M89.52,15.02l-2.13,2.3V23h-4.1V3.09h4.1v9.02l1.8-2.47l5.07-6.55h5.04l-7.07,8.85L99.52,23h-4.88L89.52,15.02
		z"/>
</g>
<g class="st0">
	<path class="st2" d="M113.04,14.37h-7.88v5.33h9.24V23h-13.34V3.09h13.32v3.32h-9.21v4.74h7.88V14.37z"/>
	<path class="st2" d="M128.79,14.37h-7.88v5.33h9.24V23h-13.34V3.09h13.32v3.32h-9.21v4.74h7.88V14.37z"/>
</g>
<g id="logo_icon">
	<path id="Rectangle_10_copy_3" class="st3" d="M28,28L0,0h28V28z"/>
	<path class="st4" d="M28,0L0,28V0H28z"/>
</g>
</svg>
